HIERARCHY
ROOT Hips
{
 OFFSET 0.000000 0.000000 0.000000
 CHANNELS 6 Xposition Yposition Zposition Yrotation Xrotation Zrotation
 JOINT Chest
 {
  OFFSET 0.000000 9.585900 0.002600
  CHANNELS 3 Yrotation Xrotation Zrotation
  JOINT Chest2
  {
   OFFSET 0.000000 9.601200 -0.005300
   CHANNELS 3 Yrotation Xrotation Zrotation
   JOINT Chest3
   {
    OFFSET 0.000000 9.561800 0.000000
    CHANNELS 3 Yrotation Xrotation Zrotation
    JOINT Chest4
    {
     OFFSET 0.000000 9.552100 0.000000
     CHANNELS 3 Yrotation Xrotation Zrotation
     JOINT Neck
     {
      OFFSET 0.000000 14.453000 0.000000
      CHANNELS 3 Yrotation Xrotation Zrotation
      JOINT Head
      {
       OFFSET 0.000000 8.936500 -0.011300
       CHANNELS 3 Yrotation Xrotation Zrotation
       End Site
       {
        OFFSET 0.000000 17.073600 -0.006000
       }
      }
     }
     JOINT RightCollar
     {
      OFFSET -2.921100 9.558500 0.000000
      CHANNELS 3 Yrotation Xrotation Zrotation
      JOINT RightShoulder
      {
       OFFSET -13.519700 0.000000 0.000000
       CHANNELS 3 Yrotation Xrotation Zrotation
       JOINT RightElbow
       {
        OFFSET 0.000000 -29.696600 0.000000
        CHANNELS 3 Yrotation Xrotation Zrotation
        JOINT RightWrist
        {
         OFFSET 0.000000 -24.004700 0.000000
         CHANNELS 3 Yrotation Xrotation Zrotation
         End Site
         {
          OFFSET 0.000000 -17.728500 0.000000
         }
        }
       }
      }
     }
     JOINT LeftCollar
     {
      OFFSET 2.921100 9.558500 0.000000
      CHANNELS 3 Yrotation Xrotation Zrotation
      JOINT LeftShoulder
      {
       OFFSET 13.519700 0.000000 0.000000
       CHANNELS 3 Yrotation Xrotation Zrotation
       JOINT LeftElbow
       {
        OFFSET 0.000000 -29.696600 0.000000
        CHANNELS 3 Yrotation Xrotation Zrotation
        JOINT LeftWrist
        {
         OFFSET 0.000000 -24.004700 0.000000
         CHANNELS 3 Yrotation Xrotation Zrotation
         End Site
         {
          OFFSET 0.000000 -17.728500 0.000000
         }
        }
       }
      }
     }
    }
   }
  }
 }
 JOINT RightHip
 {
  OFFSET -7.771700 -0.012900 -0.001300
  CHANNELS 3 Yrotation Xrotation Zrotation
  JOINT RightKnee
  {
   OFFSET 0.000000 -40.869800 0.001200
   CHANNELS 3 Yrotation Xrotation Zrotation
   JOINT RightAnkle
   {
    OFFSET 0.000000 -39.717900 0.002100
    CHANNELS 3 Yrotation Xrotation Zrotation
    JOINT RightToe
    {
     OFFSET 0.000000 -4.965400 11.033500
     CHANNELS 3 Yrotation Xrotation Zrotation
     End Site
     {
      OFFSET 0.000000 -1.423100 5.872300
     }
    }
   }
  }
 }
 JOINT LeftHip
 {
  OFFSET 7.771700 -0.012900 -0.001300
  CHANNELS 3 Yrotation Xrotation Zrotation
  JOINT LeftKnee
  {
   OFFSET 0.000000 -40.869800 0.001200
   CHANNELS 3 Yrotation Xrotation Zrotation
   JOINT LeftAnkle
   {
    OFFSET 0.000000 -39.717900 0.002100
    CHANNELS 3 Yrotation Xrotation Zrotation
    JOINT LeftToe
    {
     OFFSET 0.000000 -4.965400 11.033500
     CHANNELS 3 Yrotation Xrotation Zrotation
     End Site
     {
      OFFSET 0.000000 -1.423100 5.872300
     }
    }
   }
  }
 }
}
MOTION
Frames: 8
Frame Time: 0.008333
0.000000 85.388000 0.000000 0.000000 -5.767877 0.000000 0.000000 11.653817 0.000000 0.000000 -5.885947 0.000000 0.000000 -0.000000 0.000000 0.000000 -0.000000 0.000000 0.000000 12.528835 0.000000 0.000000 0.711642 0.000000 0.000000 -0.000000 0.000000 0.000000 0.000000 -90.000000 0.000000 -2.309062 0.000000 0.000000 2.309062 0.000000 0.000000 -0.000000 0.000000 0.000000 -0.000000 90.000000 0.000000 -2.309062 0.000000 0.000000 2.309062 0.000000 0.000000 8.520406 0.000000 0.000000 1.905762 0.000000 -0.000000 -4.658285 0.000000 0.000000 -0.000000 0.000000 0.000000 8.520406 0.000000 0.000000 1.905762 0.000000 -0.000000 -4.658285 0.000000 0.000000 -0.000000 0.000000
-87.656811 50.352649 -9.795736 164.007062 -7.732594 0.071261 2.987383 7.292373 0.762380 0.136052 0.341257 -0.002780 0.226605 0.599415 0.003976 2.748228 6.876082 0.105884 2.421730 18.358338 0.094111 4.414943 -1.638091 -0.583054 2.134204 7.722764 0.534411 -7.049372 -11.731214 -9.209442 -70.618505 -75.471792 95.122615 -3.855659 -3.622876 -24.367609 -4.494179 3.959615 0.358503 17.971973 -3.164117 5.631002 70.320879 -73.651266 -97.960574 0.431362 7.703840 7.759406 -2.439169 -73.112571 -0.335546 -178.302879 84.168213 -178.971393 -9.698619 -15.977723 2.002048 -0.023314 0.136163 0.000294 -8.112093 -76.428504 25.262154 116.998025 78.977927 113.675376 -16.258287 -21.671839 0.972608 -0.184615 -1.214620 -0.107095
-87.656391 50.354332 -9.796474 163.986741 -7.732837 0.081312 2.995440 7.297128 0.761304 0.135801 0.341077 -0.002452 0.228588 0.596478 0.003732 2.747226 6.875281 0.111035 2.425869 18.371392 0.088507 4.438193 -1.612955 -0.602478 2.135195 7.727297 0.535490 -7.037574 -11.729647 -9.240045 -70.396131 -75.436056 94.886806 -3.854569 -3.652610 -24.365740 -4.511223 3.939483 0.343034 18.017228 -3.138153 5.632821 70.363174 -73.607967 -98.010483 0.563568 7.546918 7.958601 -2.439110 -73.111713 -0.334164 -178.384868 84.171273 -179.050896 -9.693989 -15.981712 1.992228 -0.025791 0.137281 -0.006713 -8.058378 -76.426382 25.226567 116.990737 78.982423 113.673595 -16.275454 -21.650271 0.982177 -0.164053 -1.182919 -0.100263
-87.654436 50.356088 -9.795920 163.985225 -7.726524 0.078666 2.983064 7.290733 0.773931 0.140009 0.341807 -0.006985 0.234481 0.595763 0.000051 2.747432 6.874810 0.113615 2.441653 18.396648 0.094499 4.453910 -1.596305 -0.624563 2.136700 7.731407 0.540899 -7.031501 -11.726066 -9.270393 -70.327025 -75.420734 94.810129 -3.865240 -3.627294 -24.387699 -4.514996 3.933019 0.336483 18.042881 -3.126586 5.628531 70.396511 -73.555857 -98.048908 0.683017 7.407981 8.148350 -2.468442 -73.114245 -0.310223 -178.428193 84.174419 -179.094145 -9.690507 -15.984419 2.001163 -0.023873 0.136661 -0.021649 -8.087724 -76.423992 25.250202 116.960051 78.999748 113.640577 -16.246062 -21.631186 0.981309 -0.153006 -1.182709 -0.103494
-87.650278 50.358163 -9.796707 163.977561 -7.729931 0.066866 2.990883 7.293266 0.788424 0.131385 0.337742 0.003183 0.241702 0.599515 -0.008171 2.748792 6.874061 0.116448 2.446151 18.404487 0.090298 4.484891 -1.558285 -0.641664 2.135891 7.734650 0.545858 -7.027311 -11.720928 -9.302820 -70.281710 -75.410797 94.759277 -3.869556 -3.625627 -24.388309 -4.520376 3.920388 0.331043 18.068821 -3.110806 5.623875 70.427000 -73.447778 -98.067496 0.737092 7.297091 8.315564 -2.521248 -73.104556 -0.258902 -178.501695 84.180158 -179.158547 -9.688151 -15.987996 1.991078 -0.031836 0.134016 -0.021113 -8.133047 -76.417630 25.300859 116.951654 79.002279 113.629151 -16.210662 -21.601786 0.985893 -0.158660 -1.197248 -0.111033
-87.652137 50.360170 -9.799168 163.971661 -7.731339 0.092577 2.989307 7.292339 0.768930 0.126580 0.335450 0.006429 0.246311 0.601778 -0.010989 2.747127 6.874620 0.119629 2.453694 18.414887 0.081538 4.522535 -1.516789 -0.662675 2.137960 7.736700 0.540577 -7.027304 -11.712505 -9.329931 -70.264673 -75.406221 94.741709 -3.871051 -3.627395 -24.381758 -4.520359 3.907911 0.321930 18.096930 -3.095334 5.619473 70.421486 -73.405131 -98.068857 0.847499 7.182211 8.490108 -2.456548 -73.104615 -0.340015 -178.584362 84.176824 -179.235274 -9.678923 -15.994517 1.978603 -0.038266 0.134500 -0.018538 -8.037693 -76.418281 25.207842 116.943855 79.007803 113.620507 -16.258843 -21.543581 1.021446 -0.142909 -1.225936 -0.124756
-87.647907 50.362371 -9.802774 163.954197 -7.747938 0.087457 2.991026 7.298763 0.791344 0.135440 0.340651 -0.001569 0.244352 0.600530 -0.010660 2.737207 6.866519 0.133315 2.489051 18.454998 0.062003 4.548565 -1.489166 -0.686430 2.151491 7.748647 0.532250 -7.024899 -11.707536 -9.356994 -70.238958 -75.413723 94.715562 -3.869544 -3.624802 -24.377897 -4.504384 3.917047 0.296990 18.117138 -3.091974 5.615383 70.411498 -73.377880 -98.068144 0.961002 7.072773 8.660360 -2.489746 -73.082765 -0.295043 -178.602823 84.179490 -179.249518 -9.690965 -15.995185 1.977959 -0.021466 0.130857 -0.021963 -8.073026 -76.397513 25.262762 116.928228 79.008029 113.595962 -16.256162 -21.435990 1.043203 -0.230782 -1.276460 -0.139411
-87.645413 50.363990 -9.804300 163.954418 -7.748326 0.087720 2.987124 7.295340 0.797926 0.135305 0.340625 -0.001371 0.238763 0.599153 -0.009803 2.740387 6.868266 0.134222 2.508941 18.475247 0.053301 4.586852 -1.449687 -0.711188 2.154052 7.751904 0.526906 -7.025265 -11.704106 -9.371507 -70.217067 -75.421186 94.692479 -3.875319 -3.628942 -24.372584 -4.501104 3.905548 0.288108 18.124731 -3.077690 5.617347 70.430146 -73.322801 -98.063342 1.027728 6.984566 8.802508 -2.516670 -73.079317 -0.287105 -178.678575 84.179573 -179.318405 -9.668568 -15.999355 1.968250 -0.028134 0.128035 -0.028836 -8.072254 -76.394241 25.264274 116.889657 79.007508 113.549561 -16.258803 -21.389652 1.058565 -0.241001 -1.286619 -0.141372
